<svg width="111" height="42" viewBox="0 0 111 42" fill="none" xmlns="http://www.w3.org/2000/svg">
<path fill-rule="evenodd" clip-rule="evenodd" d="M61.7092 11.7101C61.7092 18.1154 57.0058 22.7879 50.5695 22.7879C44.0714 22.7879 39.368 18.1154 39.368 11.7101C39.368 5.30481 44.0714 0.632324 50.5695 0.632324C57.0058 0.632324 61.7092 5.30481 61.7092 11.7101ZM45.0306 11.7101C45.0306 14.9283 47.4442 17.4037 50.5695 17.4037C53.633 17.4037 56.0466 14.8973 56.0466 11.7101C56.0466 8.52294 53.633 6.01651 50.5695 6.01651C47.4442 6.01651 45.0306 8.49199 45.0306 11.7101Z" fill="white"/>
<path d="M0 0.972705V6.20234L8.63326 6.20217C10.0257 6.20217 11.0469 6.97576 11.0469 8.30633C11.0469 9.66785 10.0257 10.5033 8.63326 10.5033L0 10.5028V22.4475H5.50796V15.5162H8.81892C13.2748 15.5162 16.6786 12.9479 16.6786 8.30633C16.6786 3.57196 13.3057 0.972705 8.81892 0.972705H0Z" fill="white"/>
<path fill-rule="evenodd" clip-rule="evenodd" d="M33.0146 14.3403L37.9656 22.4475H31.715L27.5995 15.5162H25.2478V22.4475H19.7398V0.972705H28.5587C33.0456 0.972705 36.4184 3.57196 36.4184 8.30633C36.4184 11.1222 35.0569 13.1645 33.0146 14.3403ZM30.7867 8.30633C30.7867 6.97576 29.7965 6.20217 28.404 6.20217H25.2478V10.5033H28.404C29.7965 10.5033 30.7867 9.66785 30.7867 8.30633Z" fill="white"/>
<path d="M79.8434 0.972705H65.0214V6.20295L79.8434 6.20217V0.972705Z" fill="white"/>
<path d="M65.0214 22.4475V9.66773L79.4411 9.66785V14.6807H70.5294V22.4475H65.0214Z" fill="white"/>
<path d="M88.6066 22.4477H83.0986V0.9729H88.6066V22.4477Z" fill="#FF6F1A"/>
<path d="M91.5063 6.20237V0.9729H110.134V6.20237H103.574V22.4477H98.0664V6.20237H91.5063Z" fill="#FF6F1A"/>
<path d="M6.74834 30.4326H0V41.1742H1.36205V36.6238H6.46974V35.3391H1.36205V31.7328H6.74834V30.4326Z" fill="white"/>
<path d="M28.8311 41.1742L24.6676 30.4326H23.3055L19.1265 41.1742H20.5969L21.6804 38.3108H26.2618L27.3453 41.1742H28.8311ZM23.9711 32.3209L25.7665 37.0107H22.1757L23.9711 32.3209Z" fill="white"/>
<path d="M47.3498 39.1312L43.7744 30.4326H41.7932V41.1742H43.1553V32.3054L46.7926 41.1742H47.876L51.5133 32.259V41.1742H52.8754V30.4326H50.9097L47.3498 39.1312Z" fill="white"/>
<path d="M66.8843 30.4326V41.1742H68.2463V30.4326H66.8843Z" fill="white"/>
<path d="M83.6184 30.4326H82.2563V41.1742H89.0047V39.8741H83.6184V30.4326Z" fill="white"/>
<path d="M105.538 35.432L102.52 30.4326H100.941L104.857 36.8869V41.1742H106.219V36.8869L110.135 30.4326H108.556L105.538 35.432Z" fill="white"/>
</svg>
